<svg width="60" height="60" viewBox="0 0 60 60" fill="none" xmlns="http://www.w3.org/2000/svg">
  <rect width="60" height="60" rx="8" fill="black"/>
  <path d="M16.1719 42V18.3125H24.9062C27.2396 18.3125 29.2188 18.7396 30.8438 19.5938C32.4688 20.4271 33.6979 21.6146 34.5312 23.1562C35.3646 24.6979 35.7812 26.5104 35.7812 28.5938C35.7812 30.6771 35.3594 32.4896 34.5156 34.0312C33.6719 35.5729 32.4167 36.7604 30.75 37.5938C29.0833 38.4271 27.0625 38.8438 24.6875 38.8438H20.2969V42H16.1719ZM20.2969 35.2812H24.5625C26.1667 35.2812 27.4583 35.0312 28.4375 34.5312C29.4167 34.0104 30.1146 33.2708 30.5312 32.3125C30.9688 31.3333 31.1875 30.1458 31.1875 28.75C31.1875 27.3542 30.9688 26.1771 30.5312 25.2188C30.0938 24.2604 29.4167 23.5312 28.5 23.0312C27.5833 22.5312 26.3542 22.2812 24.8125 22.2812H20.2969V35.2812Z" fill="white"/>
  <path d="M39.8438 42L33.7344 18.3125H38.0156L41.6719 34.9375H41.9219L46 18.3125H50.125L54.1562 34.9375H54.4062L58.0781 18.3125H62.3594L56.2344 42H52.0469L47.9219 26.4062H47.7031L43.5156 42H39.8438Z" fill="white"/>
</svg> 